<?xml version="1.0" standalone="no"?>
<!DOCTYPE svg PUBLIC "-//W3C//DTD SVG 20010904//EN"
 "http://www.w3.org/TR/2001/REC-SVG-20010904/DTD/svg10.dtd">
<svg version="1.0" xmlns="http://www.w3.org/2000/svg"
 width="300.000000pt" height="287.000000pt" viewBox="0 0 300.000000 287.000000"
 preserveAspectRatio="xMidYMid meet">
<metadata>
Created by potrace 1.10, written by Peter Selinger 2001-2011
</metadata>
<g transform="translate(0.000000,287.000000) scale(0.100000,-0.100000)"
fill="#ffffff">
<path d="M1868 2569 c-16 -9 -18 -27 -18 -154 0 -117 3 -146 16 -159 19 -20
44 -20 70 -2 17 13 19 29 22 146 3 107 1 135 -12 156 -17 25 -48 31 -78 13z"/>
<path d="M1405 2436 c-19 -28 -17 -34 53 -156 66 -114 79 -130 107 -130 25 0
55 29 55 54 0 20 -117 226 -139 244 -24 19 -59 14 -76 -12z"/>
<path d="M2307 2428 c-14 -18 -48 -75 -77 -126 -46 -81 -51 -96 -42 -117 15
-33 57 -43 82 -20 24 22 140 226 140 247 0 21 -32 48 -58 48 -12 0 -31 -14
-45 -32z"/>
<path d="M1820 2153 c-165 -28 -330 -149 -398 -295 -52 -111 -58 -103 66 -103
95 0 113 -3 165 -27 69 -32 156 -112 188 -172 l23 -44 72 0 c131 -2 260 -63
347 -164 l43 -50 27 41 c132 199 101 483 -71 658 -117 119 -305 182 -462 156z"/>
<path d="M1080 2110 c-25 -25 -25 -45 -1 -69 28 -28 223 -135 244 -134 52 4
65 69 20 101 -57 39 -211 122 -227 122 -9 0 -25 -9 -36 -20z"/>
<path d="M2556 2066 c-59 -35 -112 -70 -117 -77 -22 -34 3 -82 42 -81 23 0
204 98 242 130 34 30 8 93 -39 91 -10 0 -68 -28 -128 -63z"/>
<path d="M791 1874 c-161 -43 -274 -167 -303 -332 l-11 -68 -68 -18 c-303 -78
-410 -454 -195 -684 53 -57 120 -95 201 -117 85 -22 1521 -23 1605 -1 116 31
218 115 268 224 37 81 43 205 13 293 -41 121 -129 209 -250 250 -51 17 -80 21
-152 17 -89 -4 -90 -4 -95 21 -19 81 -109 176 -198 210 -94 35 -213 23 -288
-30 l-26 -19 -30 52 c-96 169 -287 252 -471 202z"/>
<path d="M2542 1664 c-27 -18 -29 -55 -4 -77 15 -14 42 -17 154 -17 118 0 137
2 151 18 23 26 21 58 -5 76 -17 13 -51 16 -148 16 -97 0 -131 -3 -148 -16z"/>
<path d="M2446 1324 c-21 -21 -20 -57 2 -76 33 -29 218 -128 239 -128 11 0 28
9 38 20 34 38 12 66 -110 136 -115 66 -143 74 -169 48z"/>
<path d="M766 543 c-12 -3 -44 -59 -98 -171 -69 -143 -78 -168 -69 -189 13
-28 33 -37 64 -29 19 4 40 39 100 165 43 88 77 167 77 175 0 17 -35 57 -47 55
-5 -1 -16 -3 -27 -6z"/>
<path d="M1096 542 c-13 -3 -43 -56 -98 -170 -68 -142 -78 -169 -69 -189 13
-28 33 -37 64 -29 18 4 40 41 100 163 43 87 77 168 77 179 0 32 -36 55 -74 46z"/>
<path d="M1425 540 c-14 -5 -47 -63 -99 -173 -77 -163 -79 -167 -62 -191 16
-26 49 -34 73 -18 18 11 163 312 163 338 0 12 -10 30 -22 38 -25 18 -25 18
-53 6z"/>
<path d="M1754 540 c-13 -5 -45 -62 -98 -174 -76 -161 -78 -167 -62 -191 16
-25 49 -32 74 -17 19 12 162 310 162 337 0 13 -10 31 -22 39 -25 18 -25 18
-54 6z"/>
</g>
</svg>
